<svg width="490" height="252" viewBox="0 0 490 252" fill="none" xmlns="http://www.w3.org/2000/svg">
<path fill-rule="evenodd" clip-rule="evenodd" d="M297.492 0.432799C341.883 1.3818 382.066 5.6858 394.309 10.8018L398.992 12.7588L392.992 12.1688C389.692 11.8448 382.554 10.7008 377.129 9.6268C343.635 2.9978 263.471 0.653805 226.739 5.2288C219.451 6.1368 211.801 6.7348 209.739 6.5578C206.016 6.2378 206.027 6.2278 211.492 4.9458C218.906 3.2068 228.989 2.0398 247.322 0.797805C261.62 -0.171195 267.331 -0.213201 297.492 0.432799ZM243.992 9.88481C301.121 11.9208 339.509 13.8878 345.492 15.0858L351.992 16.3868L347.88 17.1378C345.618 17.5498 338.418 17.4118 331.88 16.8298C309.969 14.8808 253.29 12.6298 221.992 12.4668C194.921 12.3258 190.517 12.5178 187.242 13.9808C182.28 16.1978 182.427 15.3428 187.448 12.7818C195.319 8.7658 202.4 8.40281 243.992 9.88481ZM409.367 16.8168C425.824 25.0538 445.824 42.6528 461.384 62.5908C472.671 77.0548 464.484 71.1318 451.248 55.2588C437.537 38.8168 425.564 28.9088 402.492 14.9158C396.646 11.3698 400.755 12.5058 409.367 16.8168ZM383.492 16.2198C383.492 16.4738 381.639 17.1808 379.374 17.7908C373.818 19.2868 366.285 26.4868 363.498 32.9658C362.284 35.7888 360.187 44.1798 358.838 51.6118C355.986 67.3358 354.486 71.2398 355.151 61.2068C355.907 49.8248 357.414 40.6508 359.644 33.8748C363.15 23.2178 372.012 15.7868 381.242 15.7648C382.48 15.7618 383.492 15.9668 383.492 16.2198ZM182.492 16.2038C182.492 16.5228 179.905 18.4248 176.742 20.4308C160.345 30.8328 148.313 39.2458 142.385 44.4538C122.94 61.5368 122.948 61.5308 125.049 57.8968C130.107 49.1458 160.206 24.8528 172.919 19.2608C179.205 16.4968 182.492 15.4468 182.492 16.2038ZM396.682 25.3618C404.164 39.7248 410.248 62.4378 408.403 69.1188C407.216 73.4198 402.743 77.3448 397.387 78.7868C393.378 79.8668 376.153 80.2848 374.624 79.3398C374.179 79.0658 370.312 78.6168 366.029 78.3418C361.747 78.0678 357.999 77.5988 357.701 77.3008C356.945 76.5448 361.531 76.3378 379.992 76.2958C393.354 76.2648 396.525 75.9678 399.225 74.4918C402.77 72.5548 405.492 68.1988 405.492 64.4638C405.492 59.0058 395.69 54.7588 383.092 54.7588C373.193 54.7588 371.472 55.7568 368.432 63.2588L366.406 68.2588L366.932 63.4918C367.694 56.5938 369.806 53.1408 374.139 51.7108C379.619 49.9018 391.916 51.0428 399.364 54.0508C406.723 57.0238 406.843 59.1388 398.357 36.3488C395.098 27.5978 392.58 19.9948 392.761 19.4518C392.942 18.9088 394.707 21.5688 396.682 25.3618ZM407.165 22.1568C414.58 24.9128 421.961 29.5098 426.016 33.8978L428.992 37.1188L425.492 34.8598C423.567 33.6168 416.142 29.7218 408.992 26.2038C395.864 19.7458 394.894 17.5968 407.165 22.1568ZM392.31 25.9308C395.347 32.3488 400.131 48.4528 399.26 49.3248C398.449 50.1348 393.746 38.7048 391.042 29.3548C389.626 24.4568 388.658 20.2598 388.891 20.0258C389.124 19.7928 390.663 22.4498 392.31 25.9308ZM357.03 21.3788C356.705 22.5458 354.91 29.5738 353.04 36.9988C347.591 58.6328 341.197 69.0808 331.813 71.6868C327.001 73.0228 303.141 73.0708 289.416 71.7728C237.597 66.8708 218.954 65.8348 173.492 65.3348C147.917 65.0528 126.355 64.8078 125.575 64.7908C124.796 64.7728 124.416 64.5008 124.731 64.1868C127.591 61.3258 211.403 62.2818 250.492 65.6208C307.572 70.4958 330.616 70.7938 337.276 66.7438C340.738 64.6388 344.149 56.6678 349.741 37.6178C351.62 31.2148 354.162 24.4648 355.389 22.6178C356.806 20.4858 357.405 20.0338 357.03 21.3788ZM143.492 37.1098C143.492 37.3038 137.304 42.4188 129.742 48.4778C115.866 59.5948 107.692 65.2918 106.839 64.4388C106.315 63.9148 122.88 49.0188 128.992 44.5178C134.461 40.4908 143.492 35.8778 143.492 37.1098ZM432.276 42.9558C435.168 47.7018 437.204 54.3578 437.875 61.2588C438.426 66.9298 438.209 66.5258 433.92 53.8968C431.425 46.5468 429.581 40.3358 429.824 40.0938C430.066 39.8518 431.17 41.1398 432.276 42.9558ZM437.202 42.7238C442.449 45.9228 445.605 51.6738 446.101 58.9418C446.564 65.7328 445.509 65.0028 443.531 57.1628C442.963 54.9098 441.034 51.1318 439.245 48.7658C432.175 39.4178 432.277 39.7208 437.202 42.7238ZM121.492 44.7588C122.615 45.4848 122.096 45.7318 119.424 45.7438C112.939 45.7718 105.296 48.7188 101.27 52.7458C99.1922 54.8238 97.4922 57.1818 97.4922 57.9858C97.4922 59.7928 100.316 62.3878 102.992 63.0398C104.298 63.3578 103.864 63.5668 101.742 63.6428C97.8452 63.7818 94.4922 60.8458 94.4922 57.2938C94.4922 54.0148 100 47.8878 104.983 45.6238C109.312 43.6568 119.002 43.1498 121.492 44.7588ZM204.156 52.8018C208.475 53.6558 215.019 57.2788 217.38 60.1238C218.324 61.2618 216.947 60.9218 212.865 59.0098C207.35 56.4268 206.154 56.2588 193.241 56.2588C185.679 56.2588 179.491 56.1588 179.491 56.0368C179.492 55.9148 181.855 55.1648 184.742 54.3708C191.901 52.4028 199.167 51.8158 204.156 52.8018ZM451.799 61.5088C454.454 68.9148 454.225 69.5138 448.586 69.9118C443.259 70.2888 442.666 69.3188 447.564 68.2428L450.613 67.5738L449.937 62.1658C449.566 59.1918 449.45 56.7588 449.679 56.7588C449.909 56.7588 450.863 58.8958 451.799 61.5088ZM105.992 58.7588C107.709 59.4968 107.568 59.6258 104.992 59.6728C103.342 59.7038 101.317 59.2918 100.492 58.7588C99.3102 57.9948 99.5222 57.8008 101.492 57.8448C102.867 57.8748 104.892 58.2858 105.992 58.7588ZM411.458 62.6758C412.137 64.3158 412.486 66.2428 412.233 66.9578C411.981 67.6738 411.273 66.4838 410.66 64.3148C409.307 59.5238 409.763 58.5858 411.458 62.6758ZM108.478 66.8048C105.841 68.5008 86.2952 74.5408 73.4672 77.6228C48.8842 83.5298 34.0662 89.7278 22.0092 99.1468L18.0272 102.259L20.3082 99.0358C25.1232 92.2338 36.2672 85.2108 49.0932 80.8958C52.3372 79.8038 63.0922 76.7838 72.9922 74.1828C82.8922 71.5828 93.1022 68.8808 95.6812 68.1798C102.032 66.4508 110.431 65.5488 108.478 66.8048ZM432.492 68.6138L435.992 69.3168L432.617 70.0378C430.761 70.4348 425.586 70.7608 421.117 70.7638L412.992 70.7688L415.723 73.0138C417.225 74.2488 419.149 76.9598 419.998 79.0388C422.405 84.9258 425.277 98.4548 425.988 107.259C427.401 124.749 421.938 171.703 417.204 182.759L415.706 186.259L416.182 180.259C416.444 176.959 417.723 167.959 419.026 160.259C423.619 133.1 424.651 112.9 422.399 94.2588C421.298 85.1438 418.59 78.8728 413.237 73.0398L411.201 70.8198L413.835 69.8188C417.43 68.4518 428.218 67.7548 432.492 68.6138ZM395.992 70.2428C392.947 71.1428 387.083 71.6938 380.992 71.6538C367.313 71.5628 372.773 69.9288 388.992 69.2608C400.805 68.7738 400.914 68.7888 395.992 70.2428ZM458.305 73.2548C463.197 77.3718 464.758 82.6898 465.271 96.9908C465.799 111.729 464.663 120.906 460.039 139.259C454.768 160.182 448.042 174.444 441.482 178.609C439.052 180.153 439.032 180.143 440.634 178.225C444.849 173.177 453.777 152.919 457.073 140.925C462.169 122.378 463.786 111.194 463.169 98.7588C462.594 87.1508 460.771 79.9228 457.027 74.4058C454.105 70.0998 454.323 69.9038 458.305 73.2548ZM364.492 71.7588C366.487 72.3978 365.981 72.5768 361.992 72.6438C358.422 72.7038 357.421 72.4508 358.492 71.7588C360.211 70.6478 361.023 70.6478 364.492 71.7588ZM353.412 73.7588C351.954 76.8198 351.492 77.3868 351.492 76.1168C351.492 75.5798 352.192 74.2678 353.047 73.1998C354.514 71.3698 354.534 71.4018 353.412 73.7588ZM478.266 76.8898C485.697 81.6478 490.193 95.4478 488.975 109.759C488.577 114.434 488.284 120.284 488.324 122.759C488.386 126.534 488.219 126.946 487.289 125.319C486.648 124.199 486.123 117.652 486.045 109.819C485.885 93.7648 483.572 85.0668 477.748 78.6208C473.739 74.1828 473.787 74.0208 478.266 76.8898ZM454.955 81.6978C455.274 82.2148 454.626 82.5688 453.514 82.4858C452.402 82.4018 451.492 81.9788 451.492 81.5458C451.492 80.4398 454.252 80.5618 454.955 81.6978ZM357.079 88.9388C358.441 94.5418 358.955 101.755 359.271 119.693C359.733 145.915 358.353 166.154 355.525 174.648C354.301 178.322 353.484 184.401 353.158 192.259C352.569 206.454 350.922 213.288 345.324 224.759C335.674 244.535 318.639 253.776 302.176 248.167C296.484 246.228 288.848 239.552 285.555 233.637L283.118 229.259L289.12 235.327C297.201 243.498 303.867 246.759 312.492 246.759C317.585 246.759 320.282 246.169 324.262 244.187C334.871 238.9 344.84 224.027 349.014 207.259C353.019 191.17 350.638 170.357 343.186 156.307C339.372 149.116 330.622 140.05 324.449 136.894C320.053 134.646 320.04 134.624 323.492 135.309C328.253 136.253 333.496 139.033 336.416 142.162C340.04 146.044 340.585 145.343 338.548 139.422C334.452 127.518 329.213 120.77 324.046 120.744C321.706 120.732 321.343 120.502 322.492 119.759C329.295 115.363 341.159 129.696 342.958 144.484C343.344 147.66 344.97 152.959 346.571 156.259C348.171 159.559 350.225 165.305 351.135 169.027C352.044 172.75 352.909 175.675 353.056 175.527C353.203 175.38 354.263 166.709 355.41 156.259C357.876 133.79 358.088 111.166 355.989 94.3368C355.171 87.7798 354.681 82.2358 354.901 82.0168C355.12 81.7978 356.1 84.9118 357.079 88.9388ZM340.534 83.2088C338.193 86.0288 330.838 88.6538 317.992 91.2528C303.875 94.1078 298.646 96.1388 286.161 103.613C274.083 110.844 272.219 111.568 276.992 107.175C281.878 102.678 292.574 95.5988 297.992 93.2758C304.139 90.6398 306.889 89.8998 322.253 86.7458C330.096 85.1348 337.379 83.3548 338.437 82.7878C341.134 81.3448 341.946 81.5078 340.534 83.2088ZM410.921 84.3298C413.095 86.5048 412.885 87.0158 410.431 85.5168C408.672 84.4428 408.159 84.5428 406.931 86.1998C405.857 87.6488 405.492 87.7628 405.492 86.6498C405.492 85.0908 407.367 82.7588 408.621 82.7588C409.021 82.7588 410.056 83.4658 410.921 84.3298ZM456.742 85.8778C454.955 86.3938 453.492 87.2528 453.492 87.7878C453.492 88.3218 454.955 88.7658 456.742 88.7738C459.208 88.7858 459.63 89.0228 458.492 89.7588C456.005 91.3658 450.506 90.9578 449.798 89.1138C448.912 86.8058 452.126 84.7398 456.433 84.8488L459.992 84.9388L456.742 85.8778ZM416.073 89.6278C415.778 90.1048 413.726 90.7858 411.514 91.1388C406.203 91.9888 406.355 93.7548 411.742 93.7738C414.854 93.7858 415.591 94.0488 414.492 94.7588C413.667 95.2918 410.84 95.7348 408.211 95.7438C402.449 95.7618 400.814 93.5358 404.436 90.6028C406.764 88.7188 417.174 87.8458 416.073 89.6278ZM457.724 93.9268C457.142 94.5088 456.077 94.7868 455.355 94.5468C454.606 94.2968 455.06 93.8438 456.412 93.4898C458.075 93.0548 458.466 93.1848 457.724 93.9268ZM414.492 98.9018C414.492 99.8418 412.19 100.534 410.742 100.028C408.627 99.2908 409.356 98.2588 411.992 98.2588C413.367 98.2588 414.492 98.5478 414.492 98.9018ZM23.4922 106.669C25.9672 108.249 30.0172 111.662 32.4922 114.254C37.1202 119.1 43.4642 123.762 46.9922 124.909C48.9442 125.544 48.9422 125.562 46.9102 125.659C45.2622 125.738 44.6122 126.751 43.7972 130.509L42.7672 135.259L42.6302 131.08C42.4932 126.922 40.5182 123.759 38.0592 123.759C37.3492 123.759 32.6162 119.259 27.5412 113.759C22.4662 108.259 18.4662 103.768 18.6532 103.778C18.8392 103.788 21.0172 105.09 23.4922 106.669ZM13.4342 111.697C12.4022 115.015 11.4522 119.282 11.3242 121.18C10.9912 126.134 9.49222 124.488 9.49222 119.168C9.49222 114.236 11.3292 108.967 13.7472 106.961C15.0822 105.854 15.0362 106.551 13.4342 111.697ZM284.545 114.974C290.105 116.93 299.492 122.85 299.492 124.402C299.492 124.663 299.155 124.679 298.742 124.437C296.331 123.021 287.402 119.311 283.06 117.92C275.111 115.374 257.897 115.904 241.992 119.185C227.318 122.211 203.362 128.071 196.289 130.364C193.376 131.308 190.379 133.263 188.416 135.499C185.712 138.578 185.355 138.752 185.984 136.684C187.073 133.105 190.47 129.72 194.992 127.707C198.897 125.969 229.857 118.25 245.268 115.173C249.516 114.325 258.617 113.414 265.492 113.15C276.713 112.719 278.662 112.906 284.545 114.974ZM16.9392 115.509C15.2652 118.717 15.0582 124.08 16.5042 126.781C17.0602 127.821 19.1982 129.146 21.2542 129.726C24.6762 130.692 25.1822 130.564 27.2422 128.214C28.6962 126.555 29.4972 124.341 29.5072 121.953C29.5192 119.2 29.7702 118.641 30.4922 119.759C32.1282 122.291 31.6012 126.65 29.3922 128.859C26.8542 131.397 27.5062 132.14 33.9922 134.105L38.9922 135.62L33.4922 135.68C29.5982 135.722 26.3862 134.993 22.4922 133.183C14.0822 129.274 12.6932 127.584 13.0132 121.647C13.1782 118.596 13.9692 115.889 15.0432 114.703C17.5902 111.888 18.6032 112.318 16.9392 115.509ZM114.992 115.81C133.181 116.776 148.493 118.493 155.992 120.406C162.699 122.118 164.88 123.361 159.492 122.401C157.567 122.058 147.217 120.824 136.492 119.659C120.399 117.911 113.585 117.647 97.4922 118.148C86.7672 118.482 73.2672 119.392 67.4922 120.169C61.7172 120.946 56.8482 121.441 56.6732 121.268C56.4982 121.096 58.9732 119.971 62.1732 118.77C66.5812 117.115 71.6302 116.371 82.9922 115.705C91.2422 115.221 98.6672 114.879 99.4922 114.946C100.317 115.013 107.292 115.402 114.992 115.81ZM265.825 118.426C267.221 119.821 266.408 126.068 264.479 128.777C262.552 131.484 257.399 133.944 250.992 135.216C248.672 135.677 249.238 135.117 253.492 132.748C261.017 128.556 264.744 124.664 264.881 120.853C264.942 119.154 265.03 117.763 265.075 117.761C265.121 117.76 265.459 118.059 265.825 118.426ZM482.261 121.218C488.415 126.396 491.372 144.101 488.113 156.259C486.796 161.175 486.767 161.016 486.383 146.759C486.026 133.532 485.771 131.864 483.479 127.759C481.448 124.121 480.37 123.201 477.854 122.955C475.247 122.7 474.14 123.351 471.05 126.955C467.872 130.662 467.508 130.868 468.427 128.442C470.346 123.374 471.509 121.801 474.472 120.269C478.331 118.274 478.835 118.335 482.261 121.218ZM315.272 122.259C315.087 122.809 312.207 128.686 308.874 135.319C301.029 150.931 293.967 172.914 292.512 186.259C291.912 191.759 291.257 197.159 291.057 198.259C290.857 199.359 290.365 203.739 289.965 207.992C289.564 212.246 288.656 216.521 287.946 217.492C286.768 219.106 283.547 219.307 250.824 219.809C217.71 220.318 203.086 219.751 199.644 217.824C198.893 217.404 216.913 217.055 239.689 217.05C268.037 217.043 281.752 216.69 283.168 215.932C284.893 215.009 285.437 213.199 286.443 205.042C287.549 196.076 288.585 190.813 294.469 164.259C298.177 147.522 304.55 133.171 311.689 125.482C313.845 123.159 315.458 121.709 315.272 122.259ZM478.707 129.509C483.183 134.264 484.817 140.871 484.701 153.759C484.645 160.084 485.242 169.765 486.028 175.273C488.809 194.748 483.446 219.146 475.48 223.265C470.385 225.9 455.037 226.367 446.381 224.151C439.96 222.507 439.45 222.222 442.492 221.977C444.417 221.822 451.505 222.054 458.242 222.493C464.979 222.932 470.492 223.016 470.492 222.68C470.492 222.344 469.619 221.279 468.552 220.313C465.896 217.91 463.626 210.798 462.984 202.871L462.448 196.259L465.867 206.128C470.951 220.806 474.57 223.209 478.512 214.524C481.121 208.777 480.987 207.072 478.183 210.331C473.894 215.318 469.102 210.942 465.994 199.202C463.654 190.362 462.962 165.239 464.784 155.259C466.221 147.39 469.931 137.759 471.525 137.759C471.973 137.759 471.681 139.077 470.878 140.688C466.447 149.569 464.677 182.073 467.832 196.615C470.859 210.563 474.715 215.024 477.915 208.28C484.469 194.468 484.475 154.623 477.925 141.355C475.856 137.163 476.161 136.846 478.978 140.259L481.453 143.259L479.464 137.329C477.252 130.731 474.815 127.421 472.753 128.212C472.002 128.5 471.663 128.291 471.999 127.748C473.114 125.943 476.084 126.723 478.707 129.509ZM228.236 130.988C228.324 133.192 229.162 135.842 230.099 136.877C231.036 137.912 231.395 138.752 230.897 138.744C229.128 138.714 227.602 137.179 226.524 134.343L225.431 131.468L223.211 133.488C219.983 136.428 217.004 137.766 213.808 137.711C211.34 137.669 211.693 137.301 216.672 134.73C219.795 133.118 222.945 130.972 223.672 129.963C224.398 128.953 225.686 127.869 226.534 127.554C227.748 127.103 228.11 127.834 228.236 130.988ZM7.84921 128.509C7.37821 129.471 6.99222 136.944 6.99222 145.114V159.969L5.07022 155.614C2.21622 149.146 2.33423 136.672 5.30423 131.009C7.40723 126.999 9.68421 124.762 7.84921 128.509ZM298.492 128.199C298.492 129.176 291.451 132.77 285.877 134.639C273.392 138.825 204.746 145.876 193.642 144.113L188.992 143.375L192.992 142.62C195.192 142.204 204.417 141.384 213.492 140.797C250.409 138.41 285.547 133.297 296.242 128.757C297.48 128.232 298.492 127.981 298.492 128.199ZM184.371 130.49C181.15 131.563 178.575 131.787 175.871 131.228L171.992 130.426L174.992 129.711C176.642 129.318 180.467 128.985 183.492 128.973L188.992 128.95L184.371 130.49ZM201.199 133.724C200.129 136.56 200.218 137.09 201.992 138.418C203.938 139.876 203.924 139.907 201.492 139.588C198.197 139.154 197.559 134.914 200.402 132.341C202.383 130.547 202.392 130.563 201.199 133.724ZM466.1 135.338C465.767 136.206 464.607 140.368 463.523 144.588C461.701 151.674 459.441 158.55 450.189 185.147C448.297 190.586 446.128 195.373 445.37 195.785C444.612 196.197 441.967 196.814 439.492 197.157L434.992 197.781L439.449 195.52C443.78 193.323 444.027 192.934 448.208 181.759C450.575 175.434 454.593 163.734 457.137 155.759C461.579 141.833 464.875 133.759 466.119 133.759C466.442 133.759 466.433 134.469 466.1 135.338ZM166.911 138.259C164.877 146.94 157.196 156.35 149.412 159.698C140.935 163.345 129.542 164.316 111.413 162.937C93.8092 161.599 75.1382 158.682 68.9922 156.311L64.9922 154.767L70.4922 155.332C73.5172 155.643 79.8172 156.552 84.4922 157.353C89.1672 158.153 100.262 159.334 109.149 159.978C127.545 161.31 138.963 160.333 147.399 156.704C152.844 154.361 159.57 147.833 164.537 140.069C167.173 135.949 167.514 135.69 166.911 138.259ZM472.885 145.341C473.843 147.836 473.563 158.102 472.492 159.759C471.825 160.791 471.518 158.528 471.507 152.509C471.492 143.743 471.752 142.389 472.885 145.341ZM323.992 146.625C331.822 150.191 339.136 160.908 341.984 172.99C343.921 181.205 343.921 198.691 341.984 206.127C335.007 232.914 312.039 246.759 296.235 233.705C294.169 231.999 291.984 229.678 291.38 228.549C290.416 226.749 290.697 226.813 293.665 229.077C305.345 237.986 315.823 237.879 325.813 228.748C331.596 223.463 337.173 213.96 339.598 205.259C341.825 197.271 341.278 177.681 338.623 170.34C334.393 158.64 326.253 149.222 317.748 146.187C314.032 144.861 314.024 144.847 316.992 144.825C318.642 144.813 321.792 145.623 323.992 146.625ZM478.295 151.259C477.889 156.834 474.103 167.703 472.964 166.564C472.432 166.033 477.336 146.618 478.218 145.759C478.501 145.484 478.535 147.959 478.295 151.259ZM316.831 151.498C317.943 153.298 316.795 165.463 315.013 170.759C312.415 178.478 312.083 175.738 314.017 162.559C315.74 150.821 315.936 150.05 316.831 151.498ZM320.522 155.814C321.127 156.945 321.447 158.395 321.232 159.038C321.018 159.68 320.338 158.755 319.72 156.982C318.45 153.34 318.87 152.728 320.522 155.814ZM330.492 160.725C330.492 163.375 324.085 173.823 319.333 178.923C313.676 184.994 313.684 184.839 319.504 175.278C324.765 166.636 330.492 159.05 330.492 160.725ZM469.118 162.226C469.427 163.033 469.488 164.27 469.252 164.976C469.016 165.682 468.586 165.021 468.296 163.509C467.73 160.556 468.197 159.827 469.118 162.226ZM301.931 163.025C303.929 166.075 306.499 173.511 306.462 176.135C306.434 178.092 306.349 178.118 305.387 176.464C304.05 174.166 299.476 160.759 300.029 160.759C300.258 160.759 301.114 161.779 301.931 163.025ZM480.46 162.45C480.417 163.539 478.425 165.928 476.031 167.759C474.317 169.07 474.354 168.854 476.328 166.039C478.697 162.66 480.514 161.082 480.46 162.45ZM75.4922 165.848C82.3672 166.287 98.3422 167.083 110.992 167.616C138.021 168.754 146.663 170.596 125.442 170.696C117.989 170.73 106.064 170.307 98.9422 169.754C91.8192 169.202 79.6922 168.639 71.9922 168.504L57.9922 168.259L57.4922 174.759L56.9922 181.259L55.5992 174.35C54.2962 167.891 54.3252 167.354 56.0402 166.1C57.0492 165.363 59.0262 164.824 60.4332 164.904C61.8412 164.984 68.6172 165.409 75.4922 165.848ZM13.0312 165.749C24.0422 167.367 31.9322 174.545 35.8472 186.507C37.2422 190.771 37.8462 193.411 37.1882 192.375C25.7832 174.405 23.2002 171.867 12.1002 167.714C7.26219 165.903 4.82022 164.481 7.24222 164.884C7.65522 164.952 10.2592 165.342 13.0312 165.749ZM473.174 171.652C473.581 173.208 474.41 173.479 477.831 173.177L481.992 172.808L477.742 173.842C475.382 174.417 473.492 175.47 473.492 176.211C473.492 176.945 472.753 177.828 471.851 178.175C470.482 178.7 470.418 178.553 471.465 177.291C472.156 176.458 472.523 174.423 472.28 172.768C471.791 169.438 472.397 168.681 473.174 171.652ZM330.808 171.141C331.184 172.121 331.463 173.673 331.429 174.591C331.387 175.696 331.039 175.444 330.4 173.845C329.869 172.517 329.59 170.965 329.78 170.395C329.97 169.826 330.433 170.162 330.808 171.141ZM7.5452 172.143C8.8912 173.422 12.5242 175.462 15.6182 176.679C18.7122 177.895 22.5272 180.229 24.0942 181.866L26.9442 184.841L22.9682 182.778C20.7812 181.644 16.3982 179.791 13.2282 178.66C8.90224 177.117 7.07421 175.852 5.90421 173.589C3.90121 169.715 4.4652 169.218 7.5452 172.143ZM146.477 179.938C146.488 186.509 146.11 188.998 144.921 190.188C144.056 191.052 142.997 191.759 142.566 191.759C135.95 191.759 64.1172 184.332 60.4922 183.273C57.4602 182.387 85.4302 183.717 99.4922 185.127C107.467 185.926 120.357 186.901 128.136 187.292L142.279 188.004L142.832 185.132C143.136 183.552 143.656 180.45 143.988 178.239C145.201 170.144 146.461 171.004 146.477 179.938ZM2.33823 181.345C2.58323 190.87 3.9592 196.558 6.9122 200.262C9.1002 203.005 9.61019 203.136 21.0872 203.883C27.6352 204.309 40.6422 205.575 49.9922 206.696C59.3422 207.817 76.4422 209.185 87.9922 209.736C128.19 211.653 189.307 217.241 191.242 219.176C192.15 220.083 179.448 219.862 171.314 218.829C158.972 217.26 133.771 214.861 118.148 213.767L103.304 212.728L101.181 215.493C94.6352 224.018 82.5862 231.066 71.5342 232.836C55.0932 235.468 35.4302 226.702 26.3532 212.694C22.7562 207.143 21.3172 206.503 13.4392 206.95L7.99222 207.259L16.4922 215.821C22.8422 222.217 26.8892 225.335 32.4922 228.147C39.2322 231.531 39.5872 231.846 35.9922 231.256C28.9302 230.097 19.9982 225.093 14.7612 219.363C12.0732 216.422 7.65419 209.795 4.94119 204.637C0.0941925 195.423 0.00821362 195.102 0.000213623 186.259C-0.00978638 174.509 2.04923 170.178 2.33823 181.345ZM254.365 176.047L258.737 177.095L258.176 182.535C256.878 195.103 244.729 205.564 227.23 209.178C214.437 211.821 190.289 213.189 180.928 211.802C166.201 209.62 169.09 208.79 191.492 208.77C224.449 208.741 238.419 205.631 247.438 196.318C250.827 192.818 250.844 192.759 248.438 192.772C242.155 192.807 210.08 195.866 202.492 197.154C183.005 200.463 180.338 200.079 193.492 195.858C202.139 193.083 215.418 191.797 235.653 191.776L252.313 191.759L254.903 186.563C259.173 177.993 258.995 177.758 248.242 177.768C234.16 177.781 212.181 179.581 204.164 181.378C189.586 184.645 179.365 191.056 170.076 202.759L167.298 206.259L170.075 200.971C175.253 191.11 186.897 183.245 201.992 179.414C217.051 175.592 244.975 173.797 254.365 176.047ZM299.169 179.009C302.867 183.117 302.849 184.313 299.142 180.813C297.135 178.917 295.492 177.23 295.492 177.063C295.492 176.055 297.435 177.083 299.169 179.009ZM6.41324 180.432C6.73224 185.173 21.9582 194.347 31.3122 195.435C34.7342 195.833 36.1612 196.353 35.3122 196.891C33.2312 198.211 26.1392 197.899 21.5692 196.286C12.9322 193.239 4.21424 184.622 5.77524 180.674C6.09324 179.869 6.36824 179.764 6.41324 180.432ZM471.972 186.125C474.507 191.484 477.111 202.473 476.089 203.496C475.4 204.184 473.492 199.23 473.492 196.753C473.492 195.721 473.042 194.599 472.492 194.259C471.918 193.904 471.479 194.838 471.462 196.45C471.439 198.493 471.203 198.85 470.596 197.759C469.69 196.132 468.224 180.759 468.975 180.759C469.227 180.759 470.576 183.174 471.972 186.125ZM338.492 183.77C335.145 186.402 327.115 189.331 321.071 190.123C318.364 190.477 316.377 190.54 316.655 190.263C317.265 189.653 339.286 181.75 340.287 181.781C340.675 181.793 339.867 182.688 338.492 183.77ZM475.703 185.519C477.113 187.026 478.597 189.384 478.999 190.759C479.527 192.559 478.691 191.911 476.014 188.44C471.894 183.102 471.696 181.24 475.703 185.519ZM428.492 186.312C413.931 190.906 383.208 196.354 366.992 197.217L356.992 197.75L361.992 196.262C364.742 195.444 373.292 194.074 380.992 193.218C388.692 192.361 399.267 190.769 404.492 189.679C426.864 185.011 437.225 183.557 428.492 186.312ZM309.242 186.772C307.117 188.091 306.949 192.064 308.948 193.723C310.907 195.349 312.492 194.194 312.492 191.141C312.492 189.729 312.927 188.91 313.492 189.259C315.154 190.286 314.616 194.336 312.573 196.185C310.745 197.84 310.554 197.821 308.516 195.783C305.663 192.93 305.979 186.425 308.992 185.98C310.82 185.711 310.842 185.779 309.242 186.772ZM332.413 191.342C332.365 192.507 332.128 192.744 331.809 191.947C331.52 191.225 331.556 190.362 331.888 190.03C332.22 189.698 332.456 190.288 332.413 191.342ZM327.051 194.828C328.734 195.317 331.884 197.3 334.051 199.235L337.992 202.752L332.992 200.613C330.242 199.436 325.517 197.423 322.492 196.14C317.164 193.88 317.102 193.809 320.492 193.873C322.417 193.909 325.369 194.339 327.051 194.828ZM301.492 195.233C301.492 196.119 295.601 198.759 293.792 198.685C292.756 198.642 293.691 197.824 295.992 196.759C300.203 194.81 301.492 194.452 301.492 195.233ZM429.266 199.318C428.086 200.499 417.324 202.884 397.992 206.249C386.992 208.164 374.392 210.397 369.992 211.21C365.592 212.024 359.742 212.665 356.992 212.635L351.992 212.58L356.992 211.142C359.742 210.351 375.042 207.518 390.992 204.846C422.78 199.522 430.123 198.461 429.266 199.318ZM315.898 203.079C320.024 208.114 324.057 216.561 325.056 222.259C325.442 224.459 325.524 226.034 325.238 225.759C324.491 225.04 311.633 198.759 312.028 198.759C312.21 198.759 313.951 200.703 315.898 203.079ZM303.928 201.759C302.779 206.093 297.444 215.431 294.513 218.239C291.762 220.875 291.787 220.753 295.582 213.099C297.72 208.787 300.621 203.909 302.03 202.259C304.517 199.346 304.572 199.331 303.928 201.759ZM312.967 208.03C314.024 211.935 314.554 216.794 314.34 220.626C314.031 226.17 314.187 226.814 315.743 226.405C316.707 226.152 317.243 226.354 316.934 226.852C316.626 227.351 315.726 227.759 314.933 227.759C314.122 227.759 313.492 228.706 313.492 229.926C313.492 231.117 313.303 231.903 313.072 231.672C312.433 231.033 310.223 202.695 310.769 202.148C311.032 201.886 312.021 204.533 312.967 208.03ZM432.349 207.759C433.095 210.234 434.53 213.975 435.539 216.072C436.692 218.472 436.931 219.753 436.182 219.527C434.068 218.891 430.334 210.119 430.673 206.586L430.992 203.259L432.349 207.759ZM27.0552 210.851C32.2972 216.37 42.1792 223.726 47.8182 226.308C60.1752 231.965 71.1552 231.661 83.9922 225.306C90.5022 222.083 100.334 215.093 100.444 213.61C100.47 213.253 94.7542 212.693 87.7422 212.367C80.7302 212.04 69.1792 211.321 62.0742 210.767C54.9702 210.214 48.9382 209.98 48.6712 210.247C48.4032 210.514 50.8412 211.945 54.0882 213.427C58.7792 215.567 61.5632 216.134 67.6402 216.189C71.8472 216.228 75.1172 216.541 74.9072 216.886C74.6982 217.231 72.4312 218.04 69.8712 218.685C62.7472 220.479 56.0282 218.414 49.8162 212.523C46.4682 209.347 41.3382 208.174 29.5552 207.89L24.1182 207.759L27.0552 210.851ZM328.492 211.401C328.492 211.938 327.792 213.25 326.937 214.318C325.47 216.148 325.45 216.116 326.572 213.759C328.03 210.698 328.492 210.131 328.492 211.401ZM259.856 227.43C262.641 233.108 269.604 242.808 273.12 245.91C274.517 247.142 278.04 247.746 286.992 248.29C293.592 248.692 299.887 249.348 300.98 249.75C303.79 250.781 288.825 252.082 283.884 251.236C276.542 249.979 272.432 248.665 272.995 247.755C273.304 247.254 272.271 246.179 270.7 245.366C267.363 243.641 261.232 237.103 259.167 233.069C257.789 230.378 255.906 221.759 256.696 221.759C256.905 221.759 258.327 224.311 259.856 227.43Z" fill="black"/>
</svg>
